<?xml version="1.0" encoding="utf-8"?>
<!-- Generator: Adobe Illustrator 23.0.6, SVG Export Plug-In . SVG Version: 6.00 Build 0)  -->
<svg version="1.1" id="Layer_1" xmlns="http://www.w3.org/2000/svg" xmlns:xlink="http://www.w3.org/1999/xlink" x="0px" y="0px"
	 viewBox="0 0 276 58" style="enable-background:new 0 0 276 58;" xml:space="preserve">
<style type="text/css">
	.st0{fill:#003361;}
	.st1{fill:url(#SVGID_1_);}
	.st2{fill:url(#SVGID_2_);}
	.st3{fill:none;stroke:#FFFFFF;stroke-width:0.7408;stroke-linecap:square;stroke-miterlimit:3.8637;}
	.st4{fill:url(#SVGID_3_);}
	.st5{fill:url(#SVGID_4_);}
	.st6{fill:none;stroke:#003361;stroke-width:0.9877;stroke-miterlimit:3.8637;}
	.st7{fill:url(#SVGID_5_);}
	.st8{fill:url(#SVGID_6_);}
	.st9{fill:url(#SVGID_7_);}
	.st10{fill:url(#SVGID_8_);}
</style>
<g>
	<g>
		<path class="st0" d="M138.43,4.67c0.34,0,0.57,0.01,0.71,0.02c0.14,0.02,0.35,0.05,0.62,0.11l0.81,0.07c0.1,0,0.21-0.02,0.34-0.07
			l0.49-0.13c0.09,0,0.14,0.05,0.15,0.13l-0.12,0.61c-0.03,0.21-0.04,0.41-0.04,0.59l0.04,0.69l0.04,0.62
			c0,0.03-0.02,0.06-0.04,0.11c-0.03,0.05-0.09,0.12-0.17,0.21c-0.08,0.09-0.15,0.14-0.21,0.16c-0.07,0-0.13-0.09-0.17-0.28
			c-0.02-0.19-0.08-0.41-0.16-0.67c-0.08-0.26-0.3-0.5-0.67-0.73c-0.37-0.23-0.88-0.34-1.53-0.34c-0.51,0-0.89,0.11-1.15,0.33
			c-0.27,0.22-0.4,0.51-0.4,0.88c0,0.59,0.62,1.09,1.87,1.5c1.25,0.41,2.09,0.73,2.55,0.96c0.45,0.24,0.68,0.86,0.68,1.88
			c0,0.96-0.44,1.74-1.3,2.33c-0.87,0.59-1.81,0.88-2.83,0.88c-0.25,0-0.43-0.01-0.55-0.02c-0.12-0.01-0.31-0.04-0.58-0.09l-0.8-0.1
			c-0.19,0-0.33,0.01-0.43,0.04c-0.1,0.03-0.18,0.05-0.23,0.07c-0.05,0.01-0.14,0.04-0.26,0.1c-0.07,0-0.11-0.06-0.12-0.17v-0.59
			l0.05-0.59c0-0.12,0-0.26-0.01-0.4c-0.01-0.14-0.03-0.29-0.05-0.43c-0.03-0.33-0.06-0.56-0.09-0.7c0-0.1,0.05-0.22,0.16-0.38
			c0.11-0.14,0.2-0.21,0.27-0.21c0.04,0,0.08,0.04,0.12,0.11c0.04,0.08,0.08,0.29,0.13,0.65c0.05,0.36,0.33,0.72,0.84,1.06
			c0.5,0.35,1.13,0.52,1.88,0.52c0.53,0,0.96-0.15,1.3-0.45c0.34-0.31,0.5-0.72,0.5-1.24c0-0.55-0.42-0.96-1.27-1.25l-2.49-0.78
			c-0.88-0.46-1.33-1.17-1.33-2.13c0-0.79,0.37-1.47,1.1-2.04C136.81,4.96,137.6,4.67,138.43,4.67z"/>
		<path class="st0" d="M145.26,10.48l-0.44,1.25c-0.2,0.58-0.3,1.07-0.3,1.45c0,0.18,0.09,0.34,0.28,0.48
			c0.21,0.11,0.43,0.17,0.66,0.17c0.12,0,0.18,0.06,0.19,0.17c-0.01,0.02-0.02,0.04-0.03,0.06c-0.01,0.02-0.03,0.05-0.05,0.07
			l-0.19,0.17c-0.05,0.05-0.13,0.09-0.24,0.11l-1.39-0.08L143,14.37l-0.79,0.04c-0.12,0-0.18-0.05-0.19-0.13
			c0.01-0.03,0.02-0.06,0.04-0.09c0.02-0.04,0.05-0.1,0.12-0.18c0.06-0.08,0.19-0.17,0.4-0.25c0.2-0.08,0.41-0.38,0.64-0.89
			l1.14-2.69l1.25-3.09c0.29-0.76,0.44-1.2,0.44-1.32c0-0.07-0.02-0.14-0.04-0.21l-0.04-0.14c0.01-0.02,0.01-0.04,0.01-0.05
			c0-0.01,0.03-0.05,0.07-0.12c0.05-0.07,0.1-0.11,0.17-0.12c0.1,0,0.19-0.01,0.29-0.03c0.1-0.02,0.25-0.07,0.46-0.15
			c0.21-0.08,0.39-0.17,0.54-0.3l0.43-0.36c0.09,0,0.16,0.07,0.21,0.2c0.05,0.13,0.08,0.33,0.08,0.6c0,0.13,0.24,0.82,0.73,2.06
			l1.58,3.78c0.56,1.28,0.93,2.04,1.1,2.29c0.17,0.24,0.33,0.4,0.46,0.49c0.11,0.05,0.23,0.09,0.39,0.13
			c0.13,0.02,0.2,0.07,0.2,0.15c0,0.04-0.05,0.13-0.15,0.25c-0.1,0.12-0.19,0.19-0.27,0.2l-2.27-0.08l-1.62,0.08
			c-0.08,0-0.12-0.05-0.13-0.13c0.01-0.02,0.02-0.05,0.04-0.08c0.02-0.04,0.06-0.1,0.13-0.2c0.07-0.1,0.17-0.17,0.29-0.23
			c0.12-0.05,0.23-0.15,0.32-0.29c0.09-0.14,0.13-0.29,0.13-0.45c0-0.25-0.12-0.68-0.36-1.31l-0.44-1.24H145.26z M145.64,9.53h2.35
			l-1.17-2.92L145.64,9.53z"/>
		<path class="st0" d="M154.62,11.63c0,0.87,0.07,1.45,0.22,1.75c0.15,0.3,0.46,0.44,0.92,0.44c0.28,0,0.43,0.05,0.45,0.16
			c-0.02,0.02-0.04,0.06-0.07,0.1c-0.03,0.05-0.07,0.11-0.14,0.19c-0.07,0.08-0.14,0.12-0.21,0.13l-1.58-0.08l-0.73,0.04l-0.69,0.04
			c-0.11,0-0.17-0.04-0.19-0.12c0.01-0.02,0.02-0.04,0.03-0.09c0.01-0.04,0.06-0.11,0.15-0.21c0.08-0.1,0.18-0.16,0.3-0.17
			c0.12-0.01,0.23-0.15,0.34-0.42c0.11-0.27,0.17-0.7,0.17-1.29V7.23c0-0.71-0.06-1.19-0.2-1.45c-0.13-0.26-0.39-0.39-0.77-0.39
			c-0.13,0-0.2-0.04-0.2-0.13c0-0.07,0.06-0.16,0.19-0.28c0.13-0.12,0.26-0.17,0.4-0.17l0.53,0.04l0.46,0.04l0.62-0.01
			c0.13,0,0.32-0.02,0.57-0.07c0.09,0,0.19,0.08,0.32,0.24l0.73,1.22l3.73,5.62l0.03-4.67c0-0.71-0.1-1.2-0.29-1.45
			c-0.19-0.25-0.53-0.38-1.02-0.38c-0.19,0-0.28-0.05-0.28-0.16c0.02-0.03,0.04-0.06,0.07-0.11c0.03-0.05,0.08-0.1,0.15-0.18
			c0.07-0.08,0.16-0.12,0.24-0.14l0.49,0.04l0.86,0.04l0.72-0.01l0.73-0.07c0.13,0,0.2,0.05,0.21,0.13
			c-0.01,0.03-0.02,0.06-0.03,0.09c-0.01,0.03-0.04,0.09-0.1,0.19c-0.06,0.1-0.15,0.18-0.29,0.25c-0.13,0.07-0.24,0.26-0.32,0.58
			c-0.08,0.31-0.12,1-0.12,2.07v2.81l0.05,2.12c0,0.2-0.11,0.38-0.32,0.53l-0.42,0.28c-0.03,0.03-0.08,0.08-0.15,0.16
			c-0.07,0.08-0.17,0.18-0.28,0.31c-0.11,0.12-0.23,0.19-0.37,0.21c-0.1,0-0.3-0.22-0.58-0.67l-0.64-1.02l-3.69-5.45L154.62,11.63z"
			/>
		<path class="st0" d="M173.61,6.08l0.17-0.76c0.07-0.35,0.21-0.52,0.41-0.52l0.46,0.05l0.78,0.03l1.33-0.08
			c0.11,0,0.17,0.05,0.19,0.16c-0.01,0.02-0.02,0.05-0.03,0.07c-0.01,0.02-0.04,0.06-0.08,0.12l-0.21,0.25
			c-0.16,0.04-0.29,0.13-0.4,0.26c-0.11,0.13-0.17,0.32-0.17,0.56c0,0.16,0.08,0.84,0.24,2.03l0.33,2.55l0.09,1.29
			c0,0.67,0.09,1.12,0.28,1.33c0.19,0.22,0.41,0.35,0.68,0.4c0.23,0.03,0.35,0.08,0.37,0.16c-0.04,0.06-0.07,0.11-0.11,0.14
			c-0.03,0.03-0.07,0.09-0.1,0.16c-0.04,0.08-0.14,0.12-0.32,0.12l-0.91-0.04l-0.73-0.04l-1.99,0.08c-0.13,0-0.2-0.06-0.2-0.16
			c0.03-0.07,0.05-0.12,0.07-0.15l0.17-0.23c0.21-0.04,0.4-0.15,0.56-0.33c0.16-0.17,0.24-0.41,0.24-0.72
			c0-0.28-0.08-1.14-0.24-2.58c-0.16-1.45-0.24-2.48-0.24-3.08l-1.67,4.91c-0.03,0.07-0.07,0.24-0.12,0.5
			c-0.05,0.18-0.1,0.38-0.14,0.61c-0.04,0.23-0.15,0.4-0.34,0.52c-0.19,0.11-0.4,0.28-0.62,0.5c-0.22,0.22-0.36,0.33-0.4,0.33
			c-0.11,0-0.24-0.24-0.4-0.72l-0.76-2.34l-1.47-4.3l-0.35,3.06l-0.18,2.55c0,0.33,0.09,0.59,0.28,0.77
			c0.19,0.18,0.4,0.27,0.65,0.27c0.18,0,0.3,0.01,0.35,0.03c0.05,0.02,0.08,0.06,0.1,0.13c-0.02,0.02-0.04,0.06-0.07,0.1
			c-0.02,0.05-0.08,0.11-0.15,0.19c-0.08,0.08-0.13,0.12-0.18,0.13l-1.47-0.08l-1.41,0.08c-0.1,0-0.15-0.04-0.17-0.12
			c0.01-0.03,0.02-0.05,0.03-0.09c0.01-0.03,0.04-0.09,0.1-0.19c0.06-0.1,0.16-0.17,0.32-0.23c0.16-0.06,0.3-0.26,0.42-0.6
			c0.11-0.34,0.28-1.54,0.52-3.61l0.35-3.45c0-0.24-0.05-0.41-0.16-0.5c-0.11-0.09-0.27-0.16-0.5-0.19
			c-0.23-0.04-0.34-0.08-0.35-0.15c0-0.08,0.06-0.17,0.18-0.29c0.12-0.11,0.22-0.17,0.29-0.19l0.57,0.05l0.76,0.03l0.68-0.04
			l0.49-0.04c0.12,0,0.2,0.1,0.26,0.29l0.19,0.69l1.88,5.68L173.61,6.08z"/>
		<path class="st0" d="M180.69,10.48l-0.44,1.25c-0.21,0.58-0.31,1.07-0.31,1.45c0,0.18,0.1,0.34,0.29,0.48
			c0.21,0.11,0.43,0.17,0.66,0.17c0.12,0,0.18,0.06,0.19,0.17c-0.01,0.02-0.02,0.04-0.02,0.06c-0.01,0.02-0.03,0.05-0.06,0.07
			l-0.19,0.17c-0.05,0.05-0.13,0.09-0.24,0.11l-1.39-0.08l-0.76,0.04l-0.79,0.04c-0.11,0-0.18-0.05-0.18-0.13
			c0.01-0.03,0.02-0.06,0.04-0.09c0.02-0.04,0.06-0.1,0.12-0.18c0.06-0.08,0.19-0.17,0.4-0.25c0.2-0.08,0.42-0.38,0.64-0.89
			l1.14-2.69l1.25-3.09c0.29-0.76,0.44-1.2,0.44-1.32c0-0.07-0.01-0.14-0.04-0.21l-0.04-0.14c0.01-0.02,0.02-0.04,0.02-0.05
			c0-0.01,0.02-0.05,0.07-0.12c0.05-0.07,0.1-0.11,0.17-0.12c0.1,0,0.19-0.01,0.29-0.03c0.1-0.02,0.25-0.07,0.46-0.15
			c0.21-0.08,0.39-0.17,0.54-0.3l0.42-0.36c0.09,0,0.16,0.07,0.21,0.2c0.05,0.13,0.08,0.33,0.08,0.6c0,0.13,0.24,0.82,0.73,2.06
			l1.58,3.78c0.56,1.28,0.92,2.04,1.1,2.29c0.18,0.24,0.33,0.4,0.47,0.49c0.1,0.05,0.23,0.09,0.38,0.13c0.13,0.02,0.2,0.07,0.2,0.15
			c0,0.04-0.05,0.13-0.15,0.25c-0.1,0.12-0.19,0.19-0.27,0.2l-2.27-0.08l-1.62,0.08c-0.08,0-0.13-0.05-0.13-0.13
			c0.01-0.02,0.02-0.05,0.04-0.08c0.02-0.04,0.06-0.1,0.13-0.2c0.07-0.1,0.17-0.17,0.29-0.23c0.13-0.05,0.23-0.15,0.32-0.29
			c0.09-0.14,0.13-0.29,0.13-0.45c0-0.25-0.12-0.68-0.36-1.31l-0.44-1.24H180.69z M181.07,9.53h2.35l-1.17-2.92L181.07,9.53z"/>
		<path class="st0" d="M189.51,5.84c-0.53,0-0.93,0.1-1.19,0.31c-0.26,0.21-0.41,0.43-0.44,0.68c-0.03,0.25-0.06,0.4-0.09,0.46
			c-0.03,0.06-0.08,0.13-0.17,0.23l-0.19,0.17c-0.03,0.02-0.08,0.03-0.13,0.05c-0.06,0-0.09-0.08-0.09-0.25l0.04-0.58l0.04-1.02
			l-0.04-0.68l-0.04-0.48c0.02-0.03,0.04-0.06,0.05-0.09c0.02-0.03,0.07-0.08,0.15-0.15c0.08-0.07,0.15-0.11,0.21-0.13
			c0.1,0.12,0.26,0.24,0.5,0.35c0.24,0.11,0.53,0.17,0.89,0.17h4.29c0.42,0,0.8-0.06,1.14-0.17l0.76-0.35
			c0.11,0,0.17,0.05,0.18,0.16l-0.05,0.61l-0.03,0.55l0.08,1.54c0,0.06-0.05,0.16-0.16,0.29c-0.11,0.13-0.2,0.19-0.26,0.19
			c-0.05,0-0.1-0.04-0.14-0.12l-0.08-0.64c0-0.16-0.03-0.3-0.1-0.43c-0.07-0.13-0.19-0.27-0.37-0.43c-0.18-0.16-0.53-0.24-1.05-0.24
			h-0.92v6.9c0,0.33,0.07,0.59,0.22,0.79c0.14,0.2,0.4,0.3,0.78,0.3c0.24,0,0.36,0.04,0.36,0.12c0,0.06-0.05,0.14-0.13,0.22
			l-0.16,0.17l-0.07,0.08l-1.98-0.08l-1.95,0.08c-0.1,0-0.14-0.04-0.14-0.11c0-0.04,0.04-0.13,0.11-0.26
			c0.08-0.13,0.17-0.2,0.29-0.22c0.11-0.02,0.26-0.14,0.43-0.36c0.17-0.22,0.26-0.47,0.26-0.72v-6.9H189.51z"/>
		<path class="st0" d="M197.36,6.4c0-0.38-0.08-0.65-0.24-0.81c-0.16-0.16-0.35-0.25-0.58-0.27c-0.22-0.03-0.35-0.07-0.37-0.12
			c0-0.07,0.06-0.16,0.17-0.28c0.11-0.12,0.2-0.18,0.26-0.2l1.79,0.17l5.17-0.21c0.08,0,0.14,0.03,0.17,0.1l0.08,0.78
			c0.03,0.24,0.07,0.5,0.13,0.77l0.09,0.61c0,0.06-0.05,0.15-0.15,0.27c-0.1,0.12-0.18,0.19-0.24,0.19
			c-0.02-0.02-0.05-0.05-0.06-0.09c-0.02-0.03-0.06-0.12-0.12-0.27c-0.08-0.25-0.21-0.46-0.37-0.64c-0.17-0.18-0.42-0.32-0.76-0.42
			c-0.34-0.1-0.82-0.15-1.45-0.15h-1.55v2.34l1.5,0.08c0.57,0,0.97-0.06,1.21-0.17l0.6-0.32c0.08,0,0.13,0.06,0.14,0.19l-0.04,0.41
			l-0.04,0.44c0,0.23,0.01,0.48,0.04,0.73l0.04,0.37c0,0.12-0.02,0.21-0.07,0.28l-0.12,0.12l-0.12,0.15
			c-0.05,0.05-0.1,0.09-0.17,0.11c-0.05,0-0.09-0.02-0.12-0.07l-0.08-0.47c-0.03-0.27-0.14-0.47-0.33-0.61
			c-0.19-0.14-0.55-0.21-1.06-0.21l-1.37,0.05v3.28c0,0.3,0.15,0.52,0.46,0.65c0.33,0.13,0.9,0.19,1.71,0.19
			c0.75,0,1.27-0.13,1.56-0.39c0.29-0.26,0.47-0.52,0.54-0.79c0.07-0.27,0.14-0.42,0.18-0.45l0.15-0.05
			c0.06-0.03,0.11-0.05,0.15-0.08c0.04-0.02,0.09-0.04,0.17-0.06c0.08,0,0.12,0.06,0.12,0.18l-0.22,1.12
			c-0.04,0.2-0.06,0.38-0.08,0.54c-0.02,0.16-0.02,0.33-0.02,0.5c0,0.13-0.04,0.25-0.11,0.35c-0.07,0.1-0.18,0.15-0.32,0.16
			l-3.92-0.08l-3.05,0.08c-0.17,0-0.25-0.04-0.25-0.12c0-0.07,0.03-0.16,0.1-0.26c0.07-0.1,0.16-0.18,0.29-0.22
			c0.12-0.03,0.24-0.14,0.37-0.34c0.13-0.2,0.2-0.45,0.2-0.74V6.4z"/>
		<path class="st0" d="M209.05,14.54c-1.16,0-2.11-0.42-2.86-1.27c-0.75-0.85-1.12-1.93-1.12-3.25c0-1.48,0.52-2.74,1.56-3.79
			c1.04-1.05,2.19-1.57,3.44-1.57c1.14,0,2.09,0.42,2.85,1.27c0.76,0.85,1.13,1.93,1.13,3.23c0,1.49-0.52,2.75-1.56,3.79
			C211.45,14.02,210.3,14.54,209.05,14.54z M209.55,5.95c-0.73,0-1.26,0.22-1.62,0.66c-0.35,0.44-0.59,0.87-0.7,1.29
			c-0.11,0.42-0.17,0.93-0.17,1.53c0,1.21,0.24,2.16,0.72,2.83c0.48,0.68,1.08,1.01,1.79,1.01c0.73,0,1.33-0.29,1.79-0.88
			c0.46-0.58,0.69-1.45,0.69-2.6c0-1.22-0.24-2.17-0.73-2.84C210.84,6.28,210.25,5.95,209.55,5.95z"/>
		<path class="st0" d="M222.68,4.67c0.41,0,0.7,0.02,0.86,0.05c0.16,0.03,0.28,0.05,0.37,0.06c0.08,0.02,0.23,0.05,0.43,0.1
			c0.12,0,0.23-0.02,0.32-0.05c0.09-0.03,0.16-0.06,0.22-0.07c0.05-0.01,0.14-0.05,0.26-0.1c0.11,0,0.16,0.08,0.16,0.25l-0.05,0.58
			l-0.03,0.76c0,0.25,0.01,0.49,0.04,0.73l0.04,0.48c-0.03,0.05-0.05,0.09-0.06,0.11l-0.19,0.14c-0.07,0.05-0.13,0.09-0.19,0.11
			c-0.08,0-0.16-0.19-0.24-0.57c-0.06-0.36-0.25-0.7-0.55-1.01c-0.31-0.31-0.83-0.46-1.56-0.46c-0.71,0-1.26,0.27-1.64,0.8
			c-0.38,0.54-0.56,1.39-0.56,2.57c0,1.34,0.24,2.34,0.72,2.98c0.48,0.65,1.11,0.97,1.91,0.97c0.5,0,0.99-0.15,1.46-0.45l1.22-0.98
			c0.13,0,0.19,0.05,0.19,0.15c0,0.06-0.02,0.14-0.05,0.24l-0.07,0.25c0,0.1-0.01,0.18-0.03,0.26c-0.02,0.07-0.3,0.31-0.85,0.7
			c-0.55,0.39-1.04,0.7-1.49,0.93c-0.44,0.23-0.89,0.35-1.35,0.35c-1.03,0-1.89-0.43-2.59-1.28c-0.7-0.85-1.06-2.02-1.06-3.5
			c0-1.28,0.44-2.45,1.3-3.51C220.49,5.2,221.51,4.67,222.68,4.67z"/>
		<path class="st0" d="M230.36,14.54c-1.16,0-2.12-0.42-2.86-1.27c-0.75-0.85-1.12-1.93-1.12-3.25c0-1.48,0.52-2.74,1.56-3.79
			c1.04-1.05,2.18-1.57,3.44-1.57c1.14,0,2.09,0.42,2.84,1.27c0.76,0.85,1.13,1.93,1.13,3.23c0,1.49-0.52,2.75-1.56,3.79
			C232.77,14.02,231.62,14.54,230.36,14.54z M230.87,5.95c-0.73,0-1.27,0.22-1.62,0.66c-0.35,0.44-0.59,0.87-0.7,1.29
			c-0.11,0.42-0.17,0.93-0.17,1.53c0,1.21,0.24,2.16,0.72,2.83c0.48,0.68,1.08,1.01,1.79,1.01c0.73,0,1.33-0.29,1.8-0.88
			c0.46-0.58,0.7-1.45,0.7-2.6c0-1.22-0.25-2.17-0.73-2.84C232.16,6.28,231.56,5.95,230.87,5.95z"/>
		<path class="st0" d="M238.94,10.88c0,0.71,0.2,1.28,0.6,1.72c0.4,0.44,0.95,0.66,1.64,0.66c0.76,0,1.36-0.23,1.8-0.69
			c0.44-0.46,0.66-1.16,0.66-2.08V7.34c0-0.73-0.08-1.22-0.25-1.46c-0.16-0.24-0.41-0.39-0.74-0.44c-0.33-0.05-0.5-0.1-0.5-0.15
			c0-0.06,0.06-0.15,0.19-0.27l0.16-0.17c0.03-0.03,0.07-0.04,0.12-0.04l1.76,0.08h0.34c0.07,0,0.15,0,0.23,0
			c0.09-0.02,0.15-0.03,0.18-0.03c0.12,0,0.25-0.02,0.41-0.05c0.17,0,0.25,0.06,0.25,0.17c0,0.06-0.04,0.14-0.13,0.24
			c-0.09,0.1-0.21,0.17-0.37,0.23c-0.16,0.06-0.3,0.21-0.43,0.48c-0.13,0.26-0.19,0.71-0.19,1.35v3.4c0,1.19-0.33,2.13-1.01,2.83
			c-0.67,0.7-1.73,1.05-3.18,1.05c-0.95,0-1.77-0.27-2.47-0.8c-0.71-0.53-1.06-1.23-1.06-2.1V7.01c0-0.52-0.07-0.91-0.2-1.17
			c-0.13-0.25-0.34-0.4-0.63-0.43c-0.29-0.03-0.43-0.09-0.43-0.18c0-0.04,0.05-0.12,0.16-0.24c0.11-0.11,0.2-0.18,0.29-0.19
			l0.68,0.05l0.69,0.03l2.29-0.08c0.17,0,0.27,0.05,0.29,0.16c-0.01,0.02-0.02,0.04-0.04,0.08c-0.02,0.04-0.06,0.1-0.13,0.19
			c-0.07,0.09-0.2,0.17-0.39,0.24c-0.19,0.07-0.34,0.2-0.44,0.4c-0.1,0.19-0.15,0.54-0.15,1.05V10.88z"/>
		<path class="st0" d="M248.23,11.63c0,0.87,0.07,1.45,0.23,1.75c0.15,0.3,0.45,0.44,0.92,0.44c0.28,0,0.43,0.05,0.45,0.16
			c-0.02,0.02-0.04,0.06-0.07,0.1c-0.02,0.05-0.07,0.11-0.14,0.19c-0.07,0.08-0.14,0.12-0.21,0.13l-1.57-0.08l-0.73,0.04l-0.69,0.04
			c-0.1,0-0.17-0.04-0.18-0.12c0.01-0.02,0.02-0.04,0.03-0.09c0.02-0.04,0.06-0.11,0.15-0.21c0.08-0.1,0.18-0.16,0.3-0.17
			c0.11-0.01,0.23-0.15,0.34-0.42c0.11-0.27,0.17-0.7,0.17-1.29V7.23c0-0.71-0.07-1.19-0.2-1.45c-0.13-0.26-0.39-0.39-0.77-0.39
			c-0.13,0-0.2-0.04-0.2-0.13c0-0.07,0.06-0.16,0.19-0.28c0.13-0.12,0.26-0.17,0.4-0.17l0.53,0.04l0.46,0.04l0.62-0.01
			c0.13,0,0.33-0.02,0.57-0.07c0.09,0,0.19,0.08,0.32,0.24l0.73,1.22l3.73,5.62l0.03-4.67c0-0.71-0.1-1.2-0.29-1.45
			c-0.2-0.25-0.54-0.38-1.02-0.38c-0.18,0-0.28-0.05-0.28-0.16c0.02-0.03,0.04-0.06,0.07-0.11c0.03-0.05,0.08-0.1,0.16-0.18
			c0.07-0.08,0.15-0.12,0.24-0.14l0.49,0.04l0.86,0.04l0.72-0.01l0.73-0.07c0.13,0,0.2,0.05,0.21,0.13
			c-0.01,0.03-0.02,0.06-0.03,0.09c-0.01,0.03-0.04,0.09-0.1,0.19c-0.06,0.1-0.15,0.18-0.29,0.25c-0.13,0.07-0.24,0.26-0.32,0.58
			c-0.08,0.31-0.12,1-0.12,2.07v2.81l0.05,2.12c0,0.2-0.1,0.38-0.32,0.53l-0.43,0.28c-0.03,0.03-0.08,0.08-0.15,0.16
			c-0.07,0.08-0.17,0.18-0.28,0.31c-0.11,0.12-0.24,0.19-0.37,0.21c-0.11,0-0.3-0.22-0.58-0.67l-0.64-1.02l-3.69-5.45L248.23,11.63z
			"/>
		<path class="st0" d="M258.35,5.84c-0.53,0-0.93,0.1-1.19,0.31c-0.26,0.21-0.41,0.43-0.44,0.68c-0.03,0.25-0.06,0.4-0.09,0.46
			c-0.03,0.06-0.08,0.13-0.17,0.23l-0.18,0.17c-0.04,0.02-0.08,0.03-0.13,0.05c-0.06,0-0.09-0.08-0.09-0.25l0.04-0.58l0.04-1.02
			l-0.04-0.68l-0.04-0.48c0.02-0.03,0.04-0.06,0.05-0.09c0.02-0.03,0.06-0.08,0.15-0.15c0.08-0.07,0.15-0.11,0.21-0.13
			c0.1,0.12,0.26,0.24,0.5,0.35c0.24,0.11,0.53,0.17,0.89,0.17h4.29c0.42,0,0.8-0.06,1.14-0.17l0.76-0.35c0.1,0,0.16,0.05,0.19,0.16
			l-0.05,0.61l-0.03,0.55l0.08,1.54c0,0.06-0.06,0.16-0.17,0.29c-0.11,0.13-0.2,0.19-0.26,0.19c-0.05,0-0.1-0.04-0.14-0.12
			l-0.08-0.64c0-0.16-0.03-0.3-0.1-0.43c-0.07-0.13-0.19-0.27-0.37-0.43c-0.18-0.16-0.53-0.24-1.05-0.24h-0.92v6.9
			c0,0.33,0.07,0.59,0.22,0.79c0.15,0.2,0.4,0.3,0.77,0.3c0.24,0,0.36,0.04,0.36,0.12c0,0.06-0.05,0.14-0.14,0.22l-0.16,0.17
			l-0.07,0.08l-1.97-0.08l-1.95,0.08c-0.1,0-0.15-0.04-0.15-0.11c0-0.04,0.04-0.13,0.11-0.26c0.07-0.13,0.17-0.2,0.29-0.22
			c0.12-0.02,0.26-0.14,0.43-0.36c0.17-0.22,0.26-0.47,0.26-0.72v-6.9H258.35z"/>
		<path class="st0" d="M270.26,12.77c0,0.37,0.07,0.64,0.22,0.81c0.15,0.17,0.35,0.25,0.63,0.25c0.28,0,0.42,0.06,0.42,0.17
			c0,0.06-0.05,0.15-0.14,0.25c-0.1,0.1-0.19,0.16-0.28,0.16l-0.89-0.04l-0.74-0.04l-2.06,0.08c-0.12,0-0.18-0.05-0.18-0.15
			c0-0.05,0.03-0.13,0.1-0.22c0.07-0.1,0.2-0.19,0.39-0.28c0.2-0.09,0.33-0.25,0.42-0.5c0.08-0.25,0.13-0.88,0.13-1.9
			c0-0.26-0.05-0.5-0.13-0.72c-0.09-0.23-0.4-0.81-0.93-1.77c-0.53-0.96-0.92-1.63-1.15-2.02c-0.23-0.39-0.45-0.72-0.66-1
			c-0.2-0.28-0.45-0.44-0.76-0.47c-0.17,0-0.25-0.04-0.25-0.13c0-0.07,0.06-0.16,0.18-0.26c0.12-0.1,0.23-0.17,0.34-0.19l1.82,0.08
			l1.96-0.08c0.16,0,0.24,0.07,0.24,0.2c-0.01,0.03-0.02,0.05-0.03,0.07c-0.01,0.02-0.04,0.05-0.08,0.1
			c-0.04,0.05-0.07,0.09-0.09,0.11c-0.02,0.03-0.04,0.07-0.06,0.11l-0.46,0.17c-0.17,0.05-0.25,0.21-0.25,0.46
			c0,0.19,0.12,0.53,0.36,1.02l1.34,2.53l1.44-2.61c0.2-0.38,0.31-0.69,0.31-0.92c0-0.22-0.06-0.39-0.19-0.5
			c-0.12-0.11-0.35-0.17-0.67-0.17c-0.16,0-0.24-0.03-0.24-0.09c0-0.07,0.06-0.17,0.19-0.28c0.12-0.12,0.22-0.19,0.29-0.21
			l0.62,0.08h0.69l1.58-0.08c0.05,0,0.11,0.01,0.17,0.05c0.06,0.03,0.09,0.07,0.1,0.11c0,0.04-0.04,0.12-0.11,0.22
			c-0.07,0.1-0.21,0.19-0.42,0.28c-0.2,0.08-0.39,0.24-0.58,0.47c-0.18,0.23-0.55,0.84-1.1,1.82l-1.15,2.05
			c-0.21,0.38-0.31,0.71-0.31,0.99V12.77z"/>
		<path class="st0" d="M141.05,20.17c0.69,0,1.17,0.03,1.44,0.08c0.26,0.05,0.47,0.09,0.61,0.11c0.14,0.02,0.38,0.08,0.72,0.17
			c0.21,0,0.39-0.02,0.53-0.08c0.15-0.05,0.26-0.09,0.35-0.11c0.09-0.02,0.24-0.08,0.44-0.17c0.18,0,0.27,0.14,0.27,0.42l-0.09,0.97
			l-0.04,1.26c0,0.41,0.02,0.82,0.07,1.22l0.07,0.8c-0.05,0.09-0.08,0.15-0.11,0.18l-0.31,0.24c-0.12,0.09-0.22,0.15-0.31,0.18
			c-0.13,0-0.26-0.32-0.4-0.95c-0.1-0.6-0.41-1.17-0.92-1.68c-0.51-0.52-1.38-0.78-2.6-0.78c-1.2,0-2.11,0.45-2.74,1.34
			c-0.63,0.89-0.94,2.32-0.94,4.28c0,2.24,0.4,3.9,1.2,4.98c0.79,1.08,1.86,1.61,3.19,1.61c0.84,0,1.65-0.25,2.44-0.75l2.04-1.64
			c0.21,0,0.31,0.08,0.31,0.24c0,0.1-0.03,0.24-0.09,0.4l-0.11,0.42c0,0.16-0.02,0.3-0.06,0.43c-0.04,0.13-0.51,0.51-1.41,1.16
			c-0.91,0.65-1.74,1.17-2.48,1.55c-0.74,0.38-1.5,0.58-2.25,0.58c-1.71,0-3.15-0.71-4.33-2.13c-1.17-1.43-1.76-3.37-1.76-5.84
			c0-2.14,0.72-4.09,2.17-5.85C137.38,21.05,139.08,20.17,141.05,20.17z"/>
		<path class="st0" d="M153.75,36.64c-1.93,0-3.52-0.7-4.77-2.11c-1.25-1.41-1.87-3.21-1.87-5.41c0-2.47,0.87-4.57,2.6-6.32
			c1.74-1.75,3.65-2.62,5.74-2.62c1.9,0,3.49,0.71,4.75,2.12c1.26,1.42,1.89,3.22,1.89,5.4c0,2.48-0.87,4.59-2.6,6.33
			C157.76,35.77,155.85,36.64,153.75,36.64z M154.6,22.29c-1.21,0-2.11,0.37-2.7,1.09c-0.59,0.73-0.98,1.45-1.17,2.16
			c-0.19,0.71-0.29,1.56-0.29,2.55c0,2.02,0.4,3.6,1.2,4.73c0.8,1.13,1.79,1.69,2.99,1.69c1.22,0,2.22-0.49,3-1.46
			c0.77-0.97,1.16-2.42,1.16-4.34c0-2.04-0.41-3.61-1.22-4.74C156.75,22.85,155.76,22.29,154.6,22.29z"/>
		<path class="st0" d="M175.25,22.51l0.29-1.26c0.12-0.57,0.35-0.86,0.69-0.86l0.77,0.09l1.31,0.04l2.21-0.13
			c0.18,0,0.28,0.09,0.31,0.26c-0.02,0.04-0.03,0.08-0.05,0.11c-0.03,0.03-0.07,0.09-0.15,0.2l-0.35,0.42
			c-0.27,0.07-0.49,0.22-0.68,0.43c-0.18,0.21-0.27,0.53-0.27,0.94c0,0.27,0.13,1.39,0.4,3.39l0.55,4.25l0.15,2.15
			c0,1.12,0.15,1.86,0.46,2.22c0.31,0.36,0.69,0.59,1.13,0.67c0.38,0.05,0.59,0.14,0.62,0.27c-0.06,0.1-0.12,0.18-0.18,0.23
			c-0.06,0.05-0.12,0.14-0.18,0.28c-0.06,0.13-0.24,0.2-0.53,0.2l-1.51-0.07l-1.22-0.07l-3.32,0.13c-0.22,0-0.33-0.09-0.33-0.27
			c0.05-0.12,0.08-0.2,0.11-0.24l0.29-0.38c0.35-0.07,0.66-0.25,0.93-0.54c0.27-0.28,0.4-0.69,0.4-1.2c0-0.46-0.13-1.9-0.4-4.32
			c-0.27-2.42-0.4-4.13-0.4-5.14l-2.78,8.19c-0.05,0.12-0.11,0.4-0.2,0.84c-0.09,0.3-0.17,0.64-0.23,1.03
			c-0.07,0.39-0.26,0.68-0.58,0.86c-0.32,0.19-0.66,0.46-1.04,0.83c-0.38,0.37-0.6,0.55-0.67,0.55c-0.18,0-0.4-0.4-0.67-1.19
			l-1.26-3.91l-2.46-7.18l-0.58,5.11l-0.3,4.25c0,0.56,0.16,0.99,0.47,1.28c0.31,0.3,0.67,0.44,1.08,0.44
			c0.31,0,0.51,0.02,0.59,0.05c0.08,0.03,0.14,0.1,0.17,0.22c-0.03,0.05-0.07,0.1-0.11,0.18c-0.05,0.08-0.13,0.18-0.25,0.31
			c-0.13,0.13-0.23,0.2-0.3,0.22l-2.46-0.13l-2.35,0.13c-0.16,0-0.26-0.07-0.29-0.2c0.01-0.04,0.03-0.09,0.04-0.14
			c0.02-0.05,0.07-0.16,0.17-0.32c0.1-0.16,0.27-0.29,0.53-0.39c0.26-0.1,0.49-0.44,0.7-1.01c0.18-0.56,0.47-2.56,0.86-6.02
			l0.58-5.76c0-0.4-0.09-0.68-0.26-0.83c-0.18-0.16-0.45-0.26-0.83-0.32c-0.37-0.06-0.57-0.14-0.58-0.24c0-0.13,0.1-0.29,0.31-0.47
			c0.21-0.19,0.37-0.29,0.49-0.32l0.95,0.09l1.26,0.04l1.13-0.07l0.82-0.07c0.19,0,0.34,0.16,0.44,0.49l0.31,1.15l3.14,9.48
			L175.25,22.51z"/>
		<path class="st0" d="M196.19,22.51l0.29-1.26c0.12-0.57,0.35-0.86,0.69-0.86l0.77,0.09l1.31,0.04l2.21-0.13
			c0.18,0,0.28,0.09,0.31,0.26c-0.01,0.04-0.03,0.08-0.06,0.11c-0.02,0.03-0.07,0.09-0.14,0.2l-0.35,0.42
			c-0.26,0.07-0.49,0.22-0.68,0.43c-0.19,0.21-0.28,0.53-0.28,0.94c0,0.27,0.13,1.39,0.4,3.39l0.55,4.25l0.16,2.15
			c0,1.12,0.15,1.86,0.46,2.22c0.31,0.36,0.69,0.59,1.13,0.67c0.38,0.05,0.59,0.14,0.62,0.27c-0.06,0.1-0.12,0.18-0.17,0.23
			c-0.06,0.05-0.12,0.14-0.18,0.28c-0.06,0.13-0.24,0.2-0.53,0.2l-1.51-0.07l-1.22-0.07l-3.32,0.13c-0.22,0-0.33-0.09-0.33-0.27
			c0.04-0.12,0.08-0.2,0.11-0.24l0.29-0.38c0.35-0.07,0.66-0.25,0.93-0.54c0.26-0.28,0.4-0.69,0.4-1.2c0-0.46-0.13-1.9-0.4-4.32
			c-0.27-2.42-0.4-4.13-0.4-5.14l-2.78,8.19c-0.04,0.12-0.11,0.4-0.2,0.84c-0.09,0.3-0.17,0.64-0.23,1.03
			c-0.07,0.39-0.26,0.68-0.58,0.86c-0.32,0.19-0.66,0.46-1.04,0.83c-0.38,0.37-0.6,0.55-0.67,0.55c-0.18,0-0.4-0.4-0.66-1.19
			l-1.26-3.91l-2.46-7.18l-0.58,5.11l-0.3,4.25c0,0.56,0.16,0.99,0.47,1.28c0.31,0.3,0.67,0.44,1.08,0.44c0.31,0,0.5,0.02,0.59,0.05
			c0.08,0.03,0.14,0.1,0.17,0.22c-0.03,0.05-0.06,0.1-0.11,0.18c-0.05,0.08-0.13,0.18-0.26,0.31c-0.13,0.13-0.22,0.2-0.3,0.22
			l-2.46-0.13l-2.35,0.13c-0.16,0-0.26-0.07-0.29-0.2c0.02-0.04,0.03-0.09,0.04-0.14c0.02-0.05,0.07-0.16,0.17-0.32
			c0.1-0.16,0.27-0.29,0.53-0.39c0.26-0.1,0.49-0.44,0.7-1.01c0.18-0.56,0.47-2.56,0.86-6.02l0.58-5.76c0-0.4-0.09-0.68-0.27-0.83
			c-0.18-0.16-0.46-0.26-0.83-0.32c-0.38-0.06-0.57-0.14-0.59-0.24c0-0.13,0.11-0.29,0.31-0.47c0.21-0.19,0.37-0.29,0.49-0.32
			l0.95,0.09l1.26,0.04l1.13-0.07l0.82-0.07c0.19,0,0.34,0.16,0.44,0.49l0.31,1.15l3.15,9.48L196.19,22.51z"/>
		<path class="st0" d="M208.08,30.53c0,1.18,0.33,2.14,1.01,2.88c0.67,0.74,1.58,1.11,2.73,1.11c1.27,0,2.27-0.38,3-1.15
			c0.73-0.77,1.1-1.93,1.1-3.48v-5.27c0-1.23-0.14-2.04-0.41-2.45c-0.27-0.4-0.69-0.65-1.23-0.74c-0.55-0.09-0.83-0.17-0.84-0.24
			c0-0.1,0.1-0.25,0.31-0.44l0.27-0.29c0.04-0.04,0.11-0.07,0.2-0.07l2.94,0.13h0.58c0.12,0,0.24,0,0.38,0
			c0.15-0.03,0.25-0.04,0.31-0.04c0.19,0,0.42-0.03,0.69-0.09c0.28,0,0.42,0.1,0.42,0.29c0,0.1-0.07,0.23-0.22,0.4
			c-0.14,0.16-0.35,0.29-0.62,0.39c-0.27,0.09-0.51,0.36-0.72,0.79c-0.21,0.44-0.32,1.18-0.32,2.25v5.67c0,1.98-0.56,3.55-1.68,4.72
			c-1.12,1.17-2.89,1.75-5.31,1.75c-1.58,0-2.96-0.44-4.13-1.33c-1.17-0.89-1.76-2.05-1.76-3.5v-7.75c0-0.87-0.11-1.52-0.33-1.95
			c-0.22-0.43-0.57-0.67-1.05-0.72c-0.48-0.05-0.72-0.15-0.72-0.3c0-0.07,0.09-0.21,0.27-0.4c0.18-0.19,0.34-0.3,0.49-0.31
			l1.13,0.09l1.15,0.04l3.81-0.13c0.29,0,0.45,0.09,0.48,0.26c-0.01,0.03-0.04,0.08-0.07,0.13c-0.03,0.06-0.1,0.17-0.21,0.31
			c-0.11,0.15-0.33,0.28-0.64,0.4c-0.32,0.12-0.56,0.34-0.73,0.66c-0.17,0.32-0.25,0.91-0.25,1.75V30.53z"/>
		<path class="st0" d="M223.91,31.78c0,1.45,0.13,2.43,0.38,2.92c0.25,0.49,0.76,0.74,1.53,0.74c0.47,0,0.72,0.09,0.75,0.27
			c-0.03,0.05-0.06,0.1-0.11,0.18c-0.04,0.08-0.12,0.18-0.24,0.31c-0.12,0.13-0.23,0.2-0.35,0.22l-2.63-0.13L222,36.35l-1.15,0.07
			c-0.18,0-0.28-0.07-0.31-0.2c0.01-0.03,0.03-0.08,0.06-0.14c0.02-0.07,0.1-0.18,0.24-0.36c0.14-0.17,0.31-0.26,0.5-0.28
			c0.19-0.01,0.38-0.25,0.56-0.7c0.18-0.45,0.28-1.17,0.28-2.16v-8.15c0-1.18-0.11-1.99-0.33-2.42c-0.22-0.44-0.65-0.65-1.28-0.65
			c-0.22,0-0.33-0.07-0.33-0.22c0-0.12,0.11-0.27,0.32-0.46c0.21-0.19,0.44-0.29,0.68-0.29l0.88,0.07l0.78,0.07l1.04-0.02
			c0.22,0,0.54-0.03,0.95-0.11c0.15,0,0.32,0.13,0.53,0.4l1.22,2.04l6.22,9.39l0.04-7.79c0-1.2-0.16-2-0.49-2.43
			c-0.32-0.42-0.89-0.63-1.7-0.63c-0.31,0-0.46-0.09-0.46-0.27c0.03-0.04,0.07-0.1,0.11-0.18c0.05-0.07,0.13-0.17,0.26-0.3
			c0.12-0.12,0.26-0.2,0.41-0.23l0.82,0.07l1.44,0.07l1.2-0.02l1.22-0.11c0.22,0,0.34,0.07,0.35,0.22
			c-0.01,0.04-0.03,0.09-0.04,0.14c-0.01,0.05-0.07,0.16-0.17,0.32c-0.1,0.16-0.26,0.3-0.48,0.42c-0.22,0.12-0.4,0.44-0.53,0.96
			c-0.13,0.53-0.2,1.68-0.2,3.47v4.69l0.09,3.54c0,0.34-0.18,0.64-0.53,0.89l-0.71,0.46c-0.04,0.04-0.13,0.13-0.25,0.26
			c-0.12,0.14-0.28,0.3-0.47,0.51c-0.18,0.21-0.38,0.33-0.61,0.35c-0.18,0-0.5-0.37-0.97-1.11l-1.06-1.7l-6.15-9.1L223.91,31.78z"/>
		<path class="st0" d="M242.5,33.63c0,0.62,0.13,1.08,0.4,1.37c0.25,0.22,0.58,0.37,1,0.44c0.35,0,0.55,0.06,0.58,0.18
			c0,0.12-0.1,0.27-0.29,0.47c-0.19,0.19-0.34,0.3-0.44,0.33l-1.06-0.09L241,36.28l-2.99,0.13c-0.28,0-0.42-0.07-0.42-0.2
			c0-0.12,0.05-0.26,0.16-0.43c0.11-0.17,0.27-0.29,0.48-0.36c0.19-0.05,0.4-0.23,0.62-0.56c0.22-0.33,0.33-0.75,0.33-1.23V23.18
			c0-0.63-0.13-1.08-0.4-1.34c-0.27-0.26-0.59-0.41-0.96-0.45c-0.38-0.04-0.58-0.11-0.61-0.2c0-0.11,0.1-0.27,0.29-0.46
			c0.19-0.19,0.34-0.3,0.44-0.33l1.04,0.09l1.7,0.04l2.99-0.13c0.28,0,0.42,0.07,0.42,0.2c0,0.13-0.06,0.29-0.18,0.47
			c-0.12,0.18-0.27,0.29-0.46,0.33c-0.19,0.04-0.4,0.23-0.62,0.56c-0.22,0.33-0.33,0.74-0.33,1.23V33.63z"/>
		<path class="st0" d="M249.15,22.12c-0.89,0-1.55,0.17-1.98,0.52c-0.44,0.35-0.68,0.73-0.73,1.14c-0.05,0.41-0.1,0.67-0.14,0.76
			c-0.05,0.1-0.14,0.23-0.29,0.39l-0.31,0.29c-0.06,0.03-0.14,0.06-0.22,0.09c-0.1,0-0.15-0.14-0.15-0.42l0.06-0.98l0.07-1.71
			l-0.07-1.14l-0.06-0.81c0.03-0.04,0.06-0.09,0.09-0.14c0.03-0.05,0.11-0.14,0.25-0.25c0.13-0.11,0.25-0.18,0.35-0.22
			c0.16,0.2,0.44,0.39,0.83,0.58c0.39,0.19,0.89,0.29,1.49,0.29h7.15c0.71,0,1.34-0.09,1.9-0.28l1.26-0.59
			c0.18,0,0.28,0.09,0.31,0.27l-0.09,1.01l-0.05,0.92l0.13,2.57c0,0.1-0.09,0.26-0.27,0.48c-0.19,0.21-0.33,0.32-0.43,0.32
			c-0.09,0-0.17-0.07-0.24-0.2l-0.13-1.06c0-0.26-0.06-0.5-0.17-0.72c-0.11-0.21-0.32-0.45-0.62-0.72c-0.3-0.27-0.88-0.4-1.76-0.4
			h-1.53v11.51c0,0.55,0.12,0.99,0.36,1.32c0.24,0.33,0.67,0.49,1.3,0.49c0.4,0,0.6,0.07,0.6,0.21c0,0.11-0.07,0.23-0.22,0.36
			l-0.26,0.27l-0.11,0.13l-3.3-0.13l-3.26,0.13c-0.16,0-0.24-0.06-0.24-0.18c0-0.07,0.06-0.22,0.19-0.43
			c0.12-0.21,0.28-0.34,0.48-0.37c0.19-0.03,0.43-0.23,0.72-0.61c0.29-0.38,0.43-0.78,0.43-1.21V22.12H249.15z"/>
		<path class="st0" d="M269.35,33.67c0,0.62,0.12,1.07,0.37,1.35c0.24,0.28,0.6,0.42,1.05,0.42c0.47,0,0.71,0.1,0.71,0.29
			c0,0.1-0.08,0.24-0.24,0.42c-0.16,0.18-0.32,0.27-0.46,0.27l-1.48-0.07l-1.24-0.07l-3.43,0.13c-0.21,0-0.31-0.08-0.31-0.25
			c0-0.09,0.06-0.21,0.17-0.37c0.11-0.16,0.33-0.32,0.65-0.47c0.33-0.15,0.56-0.42,0.7-0.83c0.14-0.41,0.21-1.47,0.21-3.18
			c0-0.43-0.07-0.83-0.22-1.2c-0.15-0.37-0.66-1.35-1.55-2.94c-0.89-1.59-1.52-2.72-1.91-3.36c-0.39-0.65-0.76-1.21-1.1-1.67
			c-0.34-0.46-0.76-0.72-1.26-0.78c-0.28,0-0.42-0.07-0.42-0.22c0-0.12,0.1-0.26,0.3-0.44c0.2-0.18,0.39-0.28,0.57-0.31l3.03,0.13
			l3.28-0.13c0.26,0,0.39,0.11,0.39,0.33c-0.01,0.05-0.03,0.08-0.05,0.11c-0.02,0.03-0.07,0.08-0.14,0.17
			c-0.07,0.08-0.12,0.14-0.15,0.19c-0.04,0.05-0.07,0.11-0.1,0.18l-0.78,0.29c-0.28,0.09-0.42,0.35-0.42,0.78
			c0,0.31,0.2,0.88,0.6,1.7l2.24,4.23l2.41-4.36c0.34-0.63,0.51-1.14,0.51-1.53c0-0.37-0.1-0.64-0.31-0.83
			c-0.21-0.19-0.58-0.28-1.13-0.28c-0.26,0-0.4-0.05-0.4-0.16c0-0.12,0.1-0.27,0.31-0.48c0.21-0.2,0.37-0.31,0.49-0.34l1.04,0.13
			h1.15l2.63-0.13c0.09,0,0.18,0.02,0.28,0.08c0.1,0.05,0.15,0.11,0.17,0.19c0,0.08-0.06,0.2-0.19,0.37
			c-0.12,0.17-0.36,0.33-0.7,0.47c-0.34,0.14-0.66,0.4-0.96,0.79c-0.3,0.38-0.91,1.4-1.84,3.04l-1.93,3.43
			c-0.34,0.63-0.52,1.19-0.52,1.66V33.67z"/>
		<path class="st0" d="M139.06,42.94c0.46,0,0.78,0.02,0.96,0.05c0.18,0.03,0.31,0.06,0.41,0.07c0.09,0.02,0.25,0.05,0.48,0.11
			c0.14,0,0.26-0.02,0.36-0.05c0.1-0.03,0.18-0.06,0.24-0.07c0.06-0.01,0.16-0.05,0.29-0.11c0.12,0,0.18,0.09,0.18,0.28l-0.06,0.65
			l-0.03,0.84c0,0.28,0.01,0.54,0.04,0.81l0.04,0.53c-0.03,0.05-0.05,0.1-0.07,0.11l-0.21,0.16c-0.08,0.06-0.15,0.1-0.2,0.12
			c-0.09,0-0.18-0.21-0.27-0.63c-0.07-0.4-0.27-0.77-0.61-1.12c-0.34-0.34-0.92-0.51-1.73-0.51c-0.8,0-1.4,0.29-1.82,0.89
			c-0.42,0.6-0.63,1.54-0.63,2.85c0,1.49,0.26,2.6,0.79,3.31c0.53,0.72,1.24,1.08,2.12,1.08c0.56,0,1.1-0.17,1.62-0.5l1.35-1.09
			c0.14,0,0.21,0.05,0.21,0.16c0,0.07-0.02,0.16-0.06,0.27l-0.07,0.28c0,0.11-0.01,0.2-0.04,0.29c-0.03,0.09-0.34,0.34-0.95,0.77
			c-0.6,0.43-1.15,0.78-1.65,1.03c-0.5,0.26-1,0.38-1.5,0.38c-1.14,0-2.1-0.47-2.88-1.42c-0.78-0.95-1.17-2.25-1.17-3.88
			c0-1.43,0.48-2.73,1.44-3.9C136.62,43.53,137.75,42.94,139.06,42.94z"/>
		<path class="st0" d="M147.37,53.9c-1.29,0-2.34-0.47-3.17-1.41c-0.83-0.94-1.24-2.14-1.24-3.6c0-1.64,0.58-3.04,1.73-4.2
			c1.15-1.16,2.43-1.75,3.82-1.75c1.27,0,2.32,0.47,3.16,1.42c0.84,0.94,1.26,2.14,1.26,3.59c0,1.65-0.58,3.05-1.73,4.21
			C150.03,53.32,148.76,53.9,147.37,53.9z M147.93,44.36c-0.81,0-1.4,0.24-1.8,0.73c-0.39,0.49-0.65,0.97-0.78,1.43
			c-0.13,0.47-0.19,1.04-0.19,1.7c0,1.34,0.26,2.39,0.79,3.14c0.53,0.75,1.19,1.13,1.99,1.13c0.82,0,1.48-0.32,2-0.97
			c0.52-0.65,0.77-1.61,0.77-2.89c0-1.35-0.27-2.4-0.81-3.15C149.36,44.73,148.7,44.36,147.93,44.36z"/>
		<path class="st0" d="M156.75,51.87c0,0.29,0.15,0.49,0.45,0.59c0.3,0.1,0.86,0.15,1.67,0.15c0.7,0,1.28-0.14,1.72-0.4
			c0.44-0.27,0.71-0.59,0.8-0.96c0.09-0.37,0.21-0.62,0.36-0.74c0.15-0.12,0.25-0.19,0.32-0.21c0.11,0,0.16,0.09,0.16,0.27
			l-0.26,1.55c-0.04,0.29-0.07,0.52-0.09,0.7c-0.02,0.18-0.03,0.35-0.03,0.52c0,0.13-0.05,0.23-0.14,0.3
			c-0.09,0.07-0.21,0.11-0.36,0.12l-4.11-0.09l-3.49,0.09c-0.19,0-0.28-0.04-0.28-0.13c0-0.08,0.04-0.18,0.11-0.29
			c0.07-0.11,0.18-0.19,0.32-0.24c0.13-0.03,0.27-0.16,0.41-0.38c0.15-0.22,0.22-0.49,0.22-0.82v-6.95c0-0.42-0.09-0.72-0.26-0.89
			c-0.18-0.17-0.39-0.27-0.64-0.3c-0.25-0.03-0.39-0.07-0.4-0.13c0-0.08,0.06-0.18,0.19-0.31c0.13-0.13,0.23-0.2,0.29-0.22
			l0.69,0.06l1.13,0.03l2.11-0.09c0.19,0,0.28,0.04,0.28,0.13c0,0.09-0.04,0.19-0.11,0.31c-0.07,0.12-0.19,0.19-0.34,0.23
			c-0.16,0.03-0.33,0.17-0.5,0.42c-0.15,0.23-0.22,0.58-0.22,1.03V51.87z"/>
		<path class="st0" d="M166.15,51.87c0,0.29,0.15,0.49,0.45,0.59c0.3,0.1,0.86,0.15,1.67,0.15c0.71,0,1.28-0.14,1.72-0.4
			c0.44-0.27,0.71-0.59,0.81-0.96c0.09-0.37,0.21-0.62,0.36-0.74c0.15-0.12,0.25-0.19,0.32-0.21c0.11,0,0.16,0.09,0.16,0.27
			l-0.26,1.55c-0.04,0.29-0.07,0.52-0.09,0.7c-0.02,0.18-0.03,0.35-0.03,0.52c0,0.13-0.05,0.23-0.14,0.3
			c-0.09,0.07-0.21,0.11-0.36,0.12l-4.11-0.09l-3.49,0.09c-0.19,0-0.28-0.04-0.28-0.13c0-0.08,0.04-0.18,0.11-0.29
			c0.07-0.11,0.18-0.19,0.31-0.24c0.13-0.03,0.27-0.16,0.41-0.38c0.15-0.22,0.22-0.49,0.22-0.82v-6.95c0-0.42-0.09-0.72-0.27-0.89
			c-0.17-0.17-0.39-0.27-0.64-0.3c-0.25-0.03-0.38-0.07-0.4-0.13c0-0.08,0.06-0.18,0.19-0.31c0.13-0.13,0.23-0.2,0.3-0.22l0.69,0.06
			l1.14,0.03l2.1-0.09c0.19,0,0.28,0.04,0.28,0.13c0,0.09-0.04,0.19-0.11,0.31c-0.07,0.12-0.19,0.19-0.34,0.23
			c-0.16,0.03-0.32,0.17-0.5,0.42c-0.15,0.23-0.22,0.58-0.22,1.03V51.87z"/>
		<path class="st0" d="M173.26,44.86c0-0.43-0.09-0.73-0.26-0.9c-0.18-0.17-0.39-0.28-0.64-0.31c-0.25-0.03-0.39-0.07-0.41-0.13
			c0-0.08,0.06-0.18,0.19-0.31c0.13-0.13,0.23-0.2,0.29-0.22l1.99,0.19l5.74-0.24c0.09,0,0.15,0.04,0.19,0.12l0.09,0.87
			c0.03,0.27,0.08,0.55,0.15,0.85l0.1,0.68c0,0.07-0.05,0.17-0.16,0.3c-0.11,0.13-0.2,0.21-0.27,0.22c-0.03-0.03-0.05-0.06-0.07-0.1
			c-0.02-0.04-0.06-0.14-0.13-0.3c-0.09-0.28-0.22-0.51-0.41-0.71c-0.19-0.2-0.47-0.35-0.85-0.46c-0.38-0.11-0.92-0.16-1.61-0.16
			h-1.72v2.59l1.66,0.09c0.63,0,1.08-0.06,1.34-0.19l0.66-0.36c0.09,0,0.14,0.07,0.15,0.21l-0.04,0.46l-0.04,0.49
			c0,0.26,0.01,0.53,0.04,0.81l0.04,0.42c0,0.13-0.03,0.23-0.07,0.31l-0.13,0.14l-0.13,0.16c-0.05,0.06-0.11,0.1-0.19,0.12
			c-0.06,0-0.1-0.02-0.13-0.07l-0.09-0.52c-0.03-0.3-0.15-0.52-0.37-0.68c-0.22-0.15-0.61-0.23-1.18-0.23l-1.52,0.06v3.64
			c0,0.34,0.17,0.58,0.52,0.72c0.36,0.14,1,0.21,1.9,0.21c0.83,0,1.41-0.14,1.73-0.43c0.32-0.29,0.52-0.58,0.6-0.88
			c0.09-0.3,0.15-0.47,0.2-0.5l0.16-0.06c0.07-0.03,0.13-0.06,0.16-0.08c0.04-0.03,0.1-0.05,0.19-0.07c0.09,0,0.13,0.07,0.13,0.2
			l-0.25,1.24c-0.04,0.22-0.07,0.42-0.09,0.61c-0.02,0.18-0.03,0.37-0.03,0.56c0,0.15-0.04,0.28-0.12,0.38
			c-0.08,0.11-0.2,0.17-0.35,0.18l-4.36-0.09l-3.39,0.09c-0.19,0-0.28-0.04-0.28-0.13c0-0.08,0.04-0.18,0.11-0.29
			c0.07-0.11,0.18-0.19,0.32-0.25c0.13-0.03,0.27-0.15,0.41-0.38c0.15-0.22,0.22-0.5,0.22-0.82V44.86z"/>
		<path class="st0" d="M188.49,49.88c0-0.59-0.22-0.92-0.66-1.01l-0.77-0.11c-0.07,0-0.1-0.03-0.1-0.11c0-0.05,0.06-0.14,0.18-0.26
			c0.13-0.12,0.24-0.19,0.34-0.21l0.82,0.09h0.8l2.33-0.09c0.05,0,0.09,0.01,0.13,0.05c0.04,0.03,0.06,0.07,0.07,0.11l-0.13,0.21
			c-0.06,0.07-0.1,0.13-0.13,0.18c-0.03,0.05-0.05,0.1-0.07,0.14c-0.16,0.03-0.3,0.12-0.42,0.27c-0.12,0.15-0.18,0.38-0.18,0.67
			v1.59c0,0.2,0.01,0.35,0.03,0.43c0.02,0.08,0.04,0.15,0.06,0.19c-0.01,0.03-0.02,0.06-0.04,0.1c-0.01,0.03-0.07,0.1-0.15,0.19
			c-0.09,0.09-0.17,0.14-0.25,0.14c-0.35,0-0.93,0.24-1.72,0.72c-0.79,0.48-1.55,0.72-2.27,0.72c-1.36,0-2.48-0.47-3.33-1.42
			c-0.85-0.94-1.28-2.15-1.28-3.62c0-1.55,0.51-2.93,1.54-4.13c1.03-1.2,2.3-1.8,3.82-1.8c0.46,0,0.82,0.03,1.06,0.09l0.94,0.17
			c0.19,0,0.38-0.03,0.58-0.09l0.47-0.18c0.09,0,0.14,0.06,0.16,0.18l-0.04,0.4c-0.03,0.25-0.04,0.51-0.04,0.78l0.09,1.52
			c-0.01,0.02-0.02,0.04-0.03,0.07c-0.01,0.02-0.04,0.05-0.09,0.08c-0.05,0.03-0.09,0.09-0.12,0.18c-0.04,0.09-0.09,0.14-0.17,0.14
			c-0.07,0-0.13-0.07-0.19-0.2l-0.16-0.66c-0.06-0.3-0.33-0.57-0.8-0.84c-0.48-0.26-1.14-0.4-1.98-0.4c-0.83,0-1.51,0.31-2.03,0.94
			c-0.52,0.63-0.78,1.58-0.78,2.86c0,1.41,0.28,2.49,0.84,3.23c0.56,0.74,1.33,1.1,2.31,1.1c0.39,0,0.72-0.09,0.99-0.27
			c0.27-0.18,0.4-0.48,0.4-0.9V49.88z"/>
		<path class="st0" d="M193.27,44.86c0-0.43-0.09-0.73-0.27-0.9c-0.18-0.17-0.39-0.28-0.64-0.31c-0.25-0.03-0.39-0.07-0.41-0.13
			c0-0.08,0.07-0.18,0.19-0.31c0.13-0.13,0.23-0.2,0.29-0.22l1.99,0.19l5.74-0.24c0.09,0,0.15,0.04,0.19,0.12l0.09,0.87
			c0.03,0.27,0.08,0.55,0.15,0.85l0.1,0.68c0,0.07-0.06,0.17-0.16,0.3c-0.11,0.13-0.2,0.21-0.27,0.22c-0.03-0.03-0.05-0.06-0.07-0.1
			c-0.02-0.04-0.06-0.14-0.13-0.3c-0.09-0.28-0.23-0.51-0.41-0.71c-0.19-0.2-0.47-0.35-0.85-0.46c-0.38-0.11-0.92-0.16-1.61-0.16
			h-1.72v2.59l1.66,0.09c0.63,0,1.08-0.06,1.34-0.19l0.66-0.36c0.09,0,0.13,0.07,0.15,0.21l-0.04,0.46l-0.05,0.49
			c0,0.26,0.01,0.53,0.05,0.81l0.04,0.42c0,0.13-0.03,0.23-0.08,0.31l-0.13,0.14l-0.13,0.16c-0.05,0.06-0.11,0.1-0.19,0.12
			c-0.06,0-0.1-0.02-0.13-0.07l-0.09-0.52c-0.03-0.3-0.15-0.52-0.37-0.68c-0.22-0.15-0.61-0.23-1.18-0.23l-1.52,0.06v3.64
			c0,0.34,0.17,0.58,0.51,0.72c0.36,0.14,1,0.21,1.9,0.21c0.83,0,1.41-0.14,1.73-0.43c0.32-0.29,0.52-0.58,0.61-0.88
			c0.08-0.3,0.15-0.47,0.2-0.5l0.16-0.06c0.07-0.03,0.12-0.06,0.16-0.08c0.04-0.03,0.1-0.05,0.19-0.07c0.09,0,0.13,0.07,0.13,0.2
			l-0.25,1.24c-0.04,0.22-0.07,0.42-0.09,0.61c-0.02,0.18-0.03,0.37-0.03,0.56c0,0.15-0.04,0.28-0.12,0.38
			c-0.08,0.11-0.2,0.17-0.35,0.18l-4.36-0.09l-3.39,0.09c-0.19,0-0.28-0.04-0.28-0.13c0-0.08,0.04-0.18,0.11-0.29
			c0.07-0.11,0.18-0.19,0.32-0.25c0.13-0.03,0.27-0.15,0.41-0.38c0.15-0.22,0.22-0.5,0.22-0.82V44.86z"/>
		<path class="st0" d="M206.46,45.2c0-0.49-0.07-0.85-0.21-1.09c-0.15-0.23-0.31-0.36-0.51-0.39l-0.43-0.05
			c-0.1-0.02-0.15-0.07-0.15-0.15c0-0.06,0.07-0.15,0.21-0.28l0.27-0.19l0.41,0.05c0.23,0.03,0.65,0.04,1.27,0.04l1.22-0.03
			l0.96-0.06l1.39-0.07c1.35,0,2.42,0.41,3.21,1.22c0.79,0.81,1.18,2.01,1.18,3.59c0,1.8-0.53,3.26-1.59,4.37
			c-1.05,1.12-2.37,1.67-3.95,1.67c-0.25,0-0.67-0.03-1.23-0.09c-0.57-0.06-1.04-0.09-1.41-0.09c-0.18,0-0.34,0-0.49,0
			c-0.15,0-0.28,0-0.4,0c-0.15,0-0.35,0.03-0.59,0.09c-0.15,0-0.22-0.05-0.22-0.15c0-0.08,0.04-0.17,0.11-0.29
			c0.07-0.11,0.19-0.19,0.35-0.23c0.16-0.04,0.31-0.19,0.43-0.46c0.12-0.27,0.19-0.76,0.19-1.47V45.2z M208.66,51.13
			c0,0.69,0.11,1.09,0.32,1.21c0.12,0.05,0.21,0.08,0.27,0.1c0.07,0.02,0.19,0.05,0.38,0.1l0.74,0.06c1.79,0,2.68-1.5,2.68-4.49
			c0-1.34-0.26-2.32-0.77-2.94c-0.52-0.63-1.24-0.93-2.17-0.93c-0.23,0-0.43,0.01-0.62,0.03c-0.19,0.03-0.33,0.04-0.44,0.05
			c-0.11,0.01-0.23,0.04-0.38,0.07V51.13z"/>
		<path class="st0" d="M219.53,51.9c0,0.41,0.09,0.72,0.27,0.91c0.17,0.15,0.39,0.25,0.66,0.3c0.23,0,0.36,0.04,0.38,0.12
			c0,0.08-0.06,0.18-0.19,0.31c-0.13,0.13-0.23,0.2-0.29,0.22l-0.71-0.06l-1.12-0.03l-1.99,0.09c-0.19,0-0.28-0.04-0.28-0.13
			c0-0.08,0.04-0.18,0.11-0.29c0.07-0.11,0.18-0.19,0.32-0.24c0.13-0.03,0.27-0.16,0.41-0.38c0.15-0.22,0.22-0.49,0.22-0.82v-6.95
			c0-0.42-0.09-0.72-0.27-0.89c-0.18-0.17-0.39-0.27-0.64-0.3c-0.25-0.03-0.39-0.07-0.41-0.13c0-0.08,0.06-0.18,0.19-0.31
			c0.13-0.13,0.23-0.2,0.3-0.22l0.69,0.06l1.13,0.03l1.99-0.09c0.19,0,0.28,0.04,0.28,0.13c0,0.09-0.04,0.19-0.12,0.31
			c-0.08,0.12-0.18,0.19-0.31,0.22c-0.13,0.03-0.27,0.15-0.41,0.38c-0.14,0.22-0.22,0.49-0.22,0.82V51.9z"/>
		<path class="st0" d="M225.9,42.94c0.37,0,0.64,0.01,0.79,0.03c0.16,0.02,0.39,0.06,0.69,0.12l0.9,0.07c0.11,0,0.23-0.03,0.38-0.07
			l0.54-0.15c0.1,0,0.15,0.05,0.16,0.15l-0.13,0.68c-0.03,0.24-0.04,0.46-0.04,0.66l0.04,0.77l0.04,0.69c0,0.03-0.02,0.07-0.05,0.13
			c-0.03,0.05-0.09,0.13-0.18,0.23c-0.09,0.1-0.17,0.16-0.23,0.18c-0.08,0-0.14-0.1-0.19-0.31c-0.03-0.2-0.09-0.45-0.18-0.74
			c-0.09-0.29-0.34-0.56-0.74-0.81c-0.41-0.25-0.98-0.37-1.7-0.37c-0.56,0-0.99,0.12-1.28,0.36c-0.29,0.24-0.44,0.57-0.44,0.98
			c0,0.65,0.69,1.21,2.08,1.66c1.38,0.45,2.33,0.8,2.83,1.07c0.5,0.26,0.75,0.95,0.75,2.08c0,1.07-0.48,1.93-1.44,2.59
			c-0.97,0.65-2.01,0.98-3.14,0.98c-0.28,0-0.48-0.01-0.61-0.02c-0.13-0.02-0.35-0.05-0.64-0.1l-0.88-0.12
			c-0.21,0-0.37,0.02-0.48,0.05c-0.11,0.04-0.2,0.06-0.25,0.08c-0.05,0.01-0.15,0.05-0.29,0.11c-0.08,0-0.12-0.06-0.13-0.19v-0.65
			l0.06-0.65c0-0.14,0-0.29-0.02-0.45c-0.01-0.16-0.03-0.32-0.06-0.48c-0.03-0.36-0.06-0.62-0.1-0.78c0-0.11,0.06-0.25,0.18-0.42
			c0.13-0.15,0.23-0.23,0.29-0.23c0.05,0,0.09,0.04,0.13,0.12c0.04,0.08,0.09,0.32,0.15,0.72c0.06,0.4,0.37,0.8,0.93,1.18
			c0.56,0.39,1.26,0.58,2.09,0.58c0.59,0,1.07-0.17,1.45-0.51c0.37-0.33,0.56-0.79,0.56-1.38c0-0.61-0.47-1.07-1.41-1.39l-2.77-0.87
			c-0.98-0.51-1.47-1.3-1.47-2.37c0-0.87,0.41-1.63,1.22-2.26C224.1,43.26,224.97,42.94,225.9,42.94z"/>
		<path class="st0" d="M233.17,44.24c-0.59,0-1.03,0.12-1.32,0.34c-0.29,0.23-0.45,0.49-0.48,0.76c-0.04,0.27-0.07,0.44-0.1,0.51
			c-0.03,0.07-0.09,0.15-0.19,0.26l-0.21,0.19c-0.04,0.02-0.09,0.04-0.15,0.06c-0.07,0-0.1-0.1-0.1-0.28l0.04-0.65l0.05-1.13
			l-0.05-0.76L230.62,43c0.02-0.03,0.04-0.06,0.06-0.1c0.02-0.03,0.07-0.09,0.16-0.16c0.09-0.08,0.16-0.12,0.23-0.15
			c0.11,0.13,0.29,0.26,0.55,0.39c0.26,0.13,0.59,0.19,1,0.19h4.76c0.47,0,0.89-0.06,1.27-0.18l0.84-0.4c0.12,0,0.19,0.06,0.21,0.18
			l-0.06,0.67l-0.03,0.61l0.09,1.71c0,0.07-0.06,0.17-0.18,0.32c-0.12,0.14-0.22,0.21-0.29,0.21c-0.06,0-0.11-0.04-0.16-0.13
			l-0.09-0.71c0-0.18-0.04-0.34-0.11-0.48c-0.07-0.14-0.21-0.3-0.41-0.48c-0.2-0.18-0.59-0.26-1.17-0.26h-1.02v7.66
			c0,0.36,0.08,0.66,0.24,0.88c0.16,0.22,0.45,0.33,0.86,0.33c0.27,0,0.4,0.05,0.4,0.14c0,0.07-0.05,0.15-0.15,0.24l-0.17,0.18
			l-0.07,0.09l-2.19-0.09l-2.17,0.09c-0.11,0-0.16-0.04-0.16-0.12c0-0.05,0.04-0.15,0.13-0.29c0.08-0.14,0.19-0.22,0.31-0.24
			c0.13-0.02,0.29-0.16,0.48-0.41c0.19-0.25,0.29-0.51,0.29-0.8v-7.66H233.17z"/>
		<path class="st0" d="M243.98,51.72c0,0.46,0.07,0.79,0.2,0.98c0.13,0.19,0.33,0.32,0.6,0.38c0.27,0.04,0.43,0.08,0.49,0.13
			c0.06,0.03,0.1,0.07,0.1,0.12c-0.02,0.02-0.04,0.05-0.07,0.09c-0.03,0.05-0.07,0.09-0.13,0.15c-0.05,0.05-0.1,0.09-0.14,0.12
			c-0.04,0.02-0.07,0.04-0.1,0.06l-2.03-0.09l-2,0.18c-0.12,0-0.18-0.05-0.18-0.15c0.03-0.07,0.06-0.12,0.09-0.16
			c0.03-0.04,0.07-0.1,0.1-0.16c0.03-0.07,0.13-0.14,0.32-0.2c0.18-0.07,0.32-0.22,0.41-0.47c0.09-0.24,0.14-0.63,0.14-1.15v-6.28
			c0-0.47-0.07-0.83-0.21-1.07c-0.14-0.24-0.31-0.38-0.51-0.41l-0.43-0.05c-0.08-0.01-0.14-0.06-0.14-0.15
			c0.01-0.03,0.02-0.05,0.03-0.07c0.02-0.02,0.07-0.08,0.17-0.16c0.1-0.09,0.16-0.15,0.18-0.18l0.16-0.19l0.82,0.19h0.78l3.8-0.19
			c0.84,0,1.53,0.21,2.05,0.63c0.52,0.42,0.78,0.98,0.78,1.68c0,0.67-0.27,1.26-0.82,1.78c-0.54,0.52-1.16,0.82-1.83,0.91
			c0.56,0,1.05,0.38,1.47,1.14l0.93,2.12c0.33,0.72,0.7,1.08,1.12,1.08c0.14,0,0.29-0.04,0.44-0.12l0.53-0.26
			c0.11,0,0.16,0.05,0.16,0.16c0,0.08-0.04,0.2-0.12,0.37c-0.06,0.18-0.13,0.28-0.2,0.3c-0.07,0.02-0.37,0.22-0.9,0.59
			c-0.53,0.37-0.88,0.55-1.07,0.55c-0.46,0-0.86-0.18-1.2-0.54c-0.34-0.36-0.73-1.14-1.18-2.36c-0.44-1.21-0.82-1.95-1.12-2.21
			c-0.3-0.27-0.8-0.4-1.5-0.4V51.72z M243.98,46.91c0,0.13,0.08,0.23,0.24,0.32c0.19,0.07,0.49,0.11,0.91,0.11
			c0.64,0,1.12-0.15,1.44-0.44c0.32-0.29,0.48-0.74,0.48-1.34c0-0.4-0.15-0.72-0.44-0.96c-0.29-0.23-0.73-0.35-1.33-0.35
			c-0.09,0-0.16,0-0.2,0c-0.05,0-0.21,0.02-0.46,0.06l-0.63,0.06V46.91z"/>
		<path class="st0" d="M254.7,51.9c0,0.41,0.09,0.72,0.26,0.91c0.17,0.15,0.39,0.25,0.66,0.3c0.24,0,0.36,0.04,0.38,0.12
			c0,0.08-0.06,0.18-0.19,0.31c-0.13,0.13-0.22,0.2-0.29,0.22l-0.71-0.06l-1.12-0.03l-1.99,0.09c-0.19,0-0.28-0.04-0.28-0.13
			c0-0.08,0.04-0.18,0.11-0.29c0.07-0.11,0.18-0.19,0.32-0.24c0.13-0.03,0.26-0.16,0.41-0.38c0.15-0.22,0.22-0.49,0.22-0.82v-6.95
			c0-0.42-0.09-0.72-0.26-0.89c-0.17-0.17-0.39-0.27-0.64-0.3c-0.25-0.03-0.38-0.07-0.4-0.13c0-0.08,0.06-0.18,0.19-0.31
			c0.13-0.13,0.23-0.2,0.29-0.22l0.69,0.06l1.13,0.03l1.99-0.09c0.19,0,0.28,0.04,0.28,0.13c0,0.09-0.04,0.19-0.12,0.31
			c-0.08,0.12-0.18,0.19-0.31,0.22c-0.13,0.03-0.27,0.15-0.42,0.38c-0.14,0.22-0.22,0.49-0.22,0.82V51.9z"/>
		<path class="st0" d="M261.48,42.94c0.46,0,0.78,0.02,0.96,0.05c0.18,0.03,0.31,0.06,0.41,0.07c0.09,0.02,0.25,0.05,0.48,0.11
			c0.14,0,0.26-0.02,0.35-0.05c0.1-0.03,0.18-0.06,0.24-0.07c0.06-0.01,0.16-0.05,0.29-0.11c0.12,0,0.18,0.09,0.18,0.28l-0.06,0.65
			l-0.03,0.84c0,0.28,0.01,0.54,0.05,0.81l0.04,0.53c-0.03,0.05-0.05,0.1-0.07,0.11l-0.21,0.16c-0.08,0.06-0.15,0.1-0.21,0.12
			c-0.09,0-0.18-0.21-0.27-0.63c-0.07-0.4-0.27-0.77-0.61-1.12c-0.34-0.34-0.92-0.51-1.73-0.51c-0.8,0-1.4,0.29-1.82,0.89
			c-0.42,0.6-0.63,1.54-0.63,2.85c0,1.49,0.26,2.6,0.79,3.31c0.53,0.72,1.24,1.08,2.12,1.08c0.56,0,1.1-0.17,1.62-0.5l1.35-1.09
			c0.14,0,0.21,0.05,0.21,0.16c0,0.07-0.02,0.16-0.06,0.27l-0.08,0.28c0,0.11-0.01,0.2-0.04,0.29c-0.03,0.09-0.34,0.34-0.94,0.77
			c-0.6,0.43-1.16,0.78-1.65,1.03c-0.5,0.26-0.99,0.38-1.5,0.38c-1.14,0-2.1-0.47-2.88-1.42c-0.78-0.95-1.17-2.25-1.17-3.88
			c0-1.43,0.48-2.73,1.44-3.9C259.04,43.53,260.17,42.94,261.48,42.94z"/>
		<path class="st0" d="M267.82,44.24c-0.58,0-1.03,0.12-1.32,0.34c-0.29,0.23-0.45,0.49-0.48,0.76c-0.04,0.27-0.07,0.44-0.1,0.51
			c-0.03,0.07-0.09,0.15-0.19,0.26l-0.21,0.19c-0.04,0.02-0.09,0.04-0.15,0.06c-0.07,0-0.1-0.1-0.1-0.28l0.05-0.65l0.05-1.13
			l-0.05-0.76L265.28,43c0.02-0.03,0.04-0.06,0.06-0.1c0.02-0.03,0.07-0.09,0.16-0.16c0.09-0.08,0.17-0.12,0.23-0.15
			c0.11,0.13,0.29,0.26,0.55,0.39c0.26,0.13,0.59,0.19,0.99,0.19h4.76c0.47,0,0.89-0.06,1.27-0.18l0.84-0.4
			c0.12,0,0.19,0.06,0.21,0.18l-0.06,0.67l-0.03,0.61l0.09,1.71c0,0.07-0.06,0.17-0.19,0.32c-0.12,0.14-0.22,0.21-0.28,0.21
			c-0.06,0-0.11-0.04-0.16-0.13l-0.09-0.71c0-0.18-0.04-0.34-0.11-0.48c-0.07-0.14-0.21-0.3-0.42-0.48
			c-0.2-0.18-0.59-0.26-1.17-0.26h-1.02v7.66c0,0.36,0.08,0.66,0.24,0.88c0.16,0.22,0.45,0.33,0.86,0.33c0.26,0,0.4,0.05,0.4,0.14
			c0,0.07-0.05,0.15-0.15,0.24l-0.18,0.18l-0.07,0.09l-2.2-0.09l-2.16,0.09c-0.11,0-0.16-0.04-0.16-0.12c0-0.05,0.04-0.15,0.12-0.29
			c0.09-0.14,0.19-0.22,0.32-0.24c0.13-0.02,0.29-0.16,0.48-0.41c0.19-0.25,0.29-0.51,0.29-0.8v-7.66H267.82z"/>
	</g>
	<g>
		<linearGradient id="SVGID_1_" gradientUnits="userSpaceOnUse" x1="92.1404" y1="35.4713" x2="54.7593" y2="1.8132">
			<stop  offset="0" style="stop-color:#FFFFFF"/>
			<stop  offset="0.0406" style="stop-color:#DBE2E9"/>
			<stop  offset="0.0994" style="stop-color:#ADBECD"/>
			<stop  offset="0.1639" style="stop-color:#849DB3"/>
			<stop  offset="0.2327" style="stop-color:#60809D"/>
			<stop  offset="0.3069" style="stop-color:#42688A"/>
			<stop  offset="0.3881" style="stop-color:#2A547B"/>
			<stop  offset="0.4795" style="stop-color:#17456F"/>
			<stop  offset="0.5866" style="stop-color:#0A3B67"/>
			<stop  offset="0.7242" style="stop-color:#023562"/>
			<stop  offset="1" style="stop-color:#003361"/>
		</linearGradient>
		<path class="st1" d="M84.41,44.06c2.96-4.18,5.27-9.49,5.27-15.01c0-14.14-11.46-25.6-25.59-25.6c-5.87,0-11.26,1.98-15.58,5.3
			l1.91,1.99c3.81-2.85,8.54-4.54,13.67-4.54c12.62,0,22.84,10.23,22.84,22.84c0,4.73-1.73,9.73-4.36,13.25
			C83.12,42.89,83.43,43.32,84.41,44.06z"/>
		<linearGradient id="SVGID_2_" gradientUnits="userSpaceOnUse" x1="59.0644" y1="-1.6019" x2="90.3841" y2="43.1273">
			<stop  offset="0" style="stop-color:#FFFFFF"/>
			<stop  offset="0.0406" style="stop-color:#DBE2E9"/>
			<stop  offset="0.0994" style="stop-color:#ADBECD"/>
			<stop  offset="0.1639" style="stop-color:#849DB3"/>
			<stop  offset="0.2327" style="stop-color:#60809D"/>
			<stop  offset="0.3069" style="stop-color:#42688A"/>
			<stop  offset="0.3881" style="stop-color:#2A547B"/>
			<stop  offset="0.4795" style="stop-color:#17456F"/>
			<stop  offset="0.5866" style="stop-color:#0A3B67"/>
			<stop  offset="0.7242" style="stop-color:#023562"/>
			<stop  offset="1" style="stop-color:#003361"/>
		</linearGradient>
		<path class="st2" d="M64.13,1.04c-6.52,0-12.06,1.89-16.81,5.64L47.2,6.8l2.21,2.28c4.2-3.23,8.98-5.01,14.68-5.01
			c13.74,0,24.88,11.14,24.88,24.88c0,5.32-2.21,10.73-5.05,14.77c0.78,0.68,1.65,1.49,2.64,2.09c3.41-4.46,5.48-10.77,5.48-16.86
			C92.04,13.53,79.54,1.04,64.13,1.04z"/>
		<path class="st3" d="M49.32,8.91C53.52,5.68,58.3,3.9,64,3.9c13.74,0,24.88,11.14,24.88,24.88c0,5.32-1.84,10.61-4.68,14.65"/>
		<linearGradient id="SVGID_3_" gradientUnits="userSpaceOnUse" x1="48.7721" y1="46.0517" x2="10.8087" y2="11.8693">
			<stop  offset="0" style="stop-color:#FFFFFF"/>
			<stop  offset="0.0406" style="stop-color:#DBE2E9"/>
			<stop  offset="0.0994" style="stop-color:#ADBECD"/>
			<stop  offset="0.1639" style="stop-color:#849DB3"/>
			<stop  offset="0.2327" style="stop-color:#60809D"/>
			<stop  offset="0.3069" style="stop-color:#42688A"/>
			<stop  offset="0.3881" style="stop-color:#2A547B"/>
			<stop  offset="0.4795" style="stop-color:#17456F"/>
			<stop  offset="0.5866" style="stop-color:#0A3B67"/>
			<stop  offset="0.7242" style="stop-color:#023562"/>
			<stop  offset="1" style="stop-color:#003361"/>
		</linearGradient>
		<path class="st4" d="M29.83,3.4C15.69,3.4,4.23,14.86,4.23,29c0,14.14,11.46,25.59,25.59,25.59c5.29,0,10.23-1.56,14.31-4.3
			l0.82-0.65l-1.92-2.06l-0.8,0.61c-3.57,2.31-7.84,3.65-12.4,3.65C17.21,51.84,6.99,41.61,6.99,29c0-12.62,10.23-22.84,22.84-22.84
			c12.62,0,22.84,10.23,22.84,22.84c0,4.87-1.18,10.08-4.33,13.77c0.76,0.86,1.2,1.32,1.81,1.75c3.17-4.62,5.27-9.91,5.27-15.52
			C55.43,14.86,43.97,3.4,29.83,3.4z"/>
		<linearGradient id="SVGID_4_" gradientUnits="userSpaceOnUse" x1="13.7909" y1="6.1836" x2="45.805" y2="51.9044">
			<stop  offset="0" style="stop-color:#FFFFFF"/>
			<stop  offset="0.0406" style="stop-color:#DBE2E9"/>
			<stop  offset="0.0994" style="stop-color:#ADBECD"/>
			<stop  offset="0.1639" style="stop-color:#849DB3"/>
			<stop  offset="0.2327" style="stop-color:#60809D"/>
			<stop  offset="0.3069" style="stop-color:#42688A"/>
			<stop  offset="0.3881" style="stop-color:#2A547B"/>
			<stop  offset="0.4795" style="stop-color:#17456F"/>
			<stop  offset="0.5866" style="stop-color:#0A3B67"/>
			<stop  offset="0.7242" style="stop-color:#023562"/>
			<stop  offset="1" style="stop-color:#003361"/>
		</linearGradient>
		<path class="st5" d="M29.8,1.14c-15.41,0-27.91,12.5-27.91,27.91s12.5,27.91,27.91,27.91c6.52,0,12.52-2.24,17.27-5.99l0.12-0.12
			l-2.2-2.06c-4.2,3.23-9.45,5.15-15.15,5.15c-13.74,0-24.88-11.14-24.88-24.88c0-13.74,11.14-24.88,24.88-24.88
			c13.74,0,24.88,11.14,24.88,24.88c0,5.44-1.86,11-5,15.13c0.89,0.84,1.39,1.14,2.25,1.81c3.22-4.12,5.74-10.81,5.74-16.94
			C57.71,13.63,45.21,1.14,29.8,1.14z"/>
		<path class="st6" d="M51.97,45.99c3.18-4.44,5.74-10.28,5.74-16.94c0-15.41-12.5-27.91-27.91-27.91
			c-15.41,0-27.91,12.5-27.91,27.91s12.5,27.91,27.91,27.91c6.52,0,12.52-2.24,17.27-5.99"/>
		<path class="st3" d="M44.95,48.78c-4.2,3.23-9.45,5.15-15.15,5.15c-13.74,0-24.88-11.14-24.88-24.88
			c0-13.74,11.14-24.88,24.88-24.88c13.74,0,24.88,11.14,24.88,24.88c0,5.44-1.6,10.77-4.76,14.82"/>
		<linearGradient id="SVGID_5_" gradientUnits="userSpaceOnUse" x1="73.4792" y1="56.2066" x2="35.8385" y2="22.3148">
			<stop  offset="0" style="stop-color:#FFFFFF"/>
			<stop  offset="0.0406" style="stop-color:#DBE2E9"/>
			<stop  offset="0.0994" style="stop-color:#ADBECD"/>
			<stop  offset="0.1639" style="stop-color:#849DB3"/>
			<stop  offset="0.2327" style="stop-color:#60809D"/>
			<stop  offset="0.3069" style="stop-color:#42688A"/>
			<stop  offset="0.3881" style="stop-color:#2A547B"/>
			<stop  offset="0.4795" style="stop-color:#17456F"/>
			<stop  offset="0.5866" style="stop-color:#0A3B67"/>
			<stop  offset="0.7242" style="stop-color:#023562"/>
			<stop  offset="1" style="stop-color:#003361"/>
		</linearGradient>
		<path class="st7" d="M77.68,47.39c-3.8,2.81-8.51,4.5-13.59,4.5c-12.62,0-22.84-10.23-22.84-22.84c0-4.88,2.07-9.4,4.75-13.13
			c-0.85-0.98-1.49-1.54-2.34-2.28c-3.14,4.24-5.16,9.72-5.16,15.42c0,14.14,11.46,25.59,25.59,25.59c5.84,0,11.27-2.02,15.58-5.31
			L77.68,47.39z"/>
		<linearGradient id="SVGID_6_" gradientUnits="userSpaceOnUse" x1="39.1078" y1="14.2914" x2="70.3046" y2="58.845">
			<stop  offset="0" style="stop-color:#FFFFFF"/>
			<stop  offset="0.0406" style="stop-color:#DBE2E9"/>
			<stop  offset="0.0994" style="stop-color:#ADBECD"/>
			<stop  offset="0.1639" style="stop-color:#849DB3"/>
			<stop  offset="0.2327" style="stop-color:#60809D"/>
			<stop  offset="0.3069" style="stop-color:#42688A"/>
			<stop  offset="0.3881" style="stop-color:#2A547B"/>
			<stop  offset="0.4795" style="stop-color:#17456F"/>
			<stop  offset="0.5866" style="stop-color:#0A3B67"/>
			<stop  offset="0.7242" style="stop-color:#023562"/>
			<stop  offset="1" style="stop-color:#003361"/>
		</linearGradient>
		<path class="st8" d="M64.14,53.93c-13.74,0-24.88-11.14-24.88-24.88c0-5.36,2.19-10.75,5.1-14.84c-0.81-0.69-1.66-1.47-2.43-1.9
			c-3.41,4.61-5.66,10.55-5.66,16.73c0,15.41,12.49,27.91,27.91,27.91c7.9,0,13.5-2.54,18.93-7.42L81,47.33
			C76.24,51.44,71.25,53.93,64.14,53.93z"/>
		<path class="st6" d="M81.46,50.97c-4.75,3.75-10.75,5.99-17.28,5.99c-15.41,0-27.91-12.5-27.91-27.91
			c0-6.76,3.18-13.51,5.72-16.82"/>
		<path class="st3" d="M80.99,47.57c-4.76,4.11-9.76,6.6-16.86,6.59c-13.74,0-24.88-11.14-24.88-24.88c0-5.36,2-10.69,4.91-14.78"/>
		<linearGradient id="SVGID_7_" gradientUnits="userSpaceOnUse" x1="117.3751" y1="46.1738" x2="79.4138" y2="11.9933">
			<stop  offset="0" style="stop-color:#FFFFFF"/>
			<stop  offset="0.0406" style="stop-color:#DBE2E9"/>
			<stop  offset="0.0994" style="stop-color:#ADBECD"/>
			<stop  offset="0.1639" style="stop-color:#849DB3"/>
			<stop  offset="0.2327" style="stop-color:#60809D"/>
			<stop  offset="0.3069" style="stop-color:#42688A"/>
			<stop  offset="0.3881" style="stop-color:#2A547B"/>
			<stop  offset="0.4795" style="stop-color:#17456F"/>
			<stop  offset="0.5866" style="stop-color:#0A3B67"/>
			<stop  offset="0.7242" style="stop-color:#023562"/>
			<stop  offset="1" style="stop-color:#003361"/>
		</linearGradient>
		<path class="st9" d="M98.35,3.45c-5.88,0-11.25,2.01-15.57,5.34l2.02,2.13c3.78-2.83,8.46-4.51,13.55-4.51
			c12.5,0,22.63,10.13,22.63,22.63c0,12.5-10.13,22.63-22.63,22.63c-12.5,0-22.64-10.13-22.64-22.63c0-4.77,1.85-9.52,4.5-13.15
			c-0.65-0.74-1.55-1.62-2.32-2.22c-3.03,4.2-5.14,9.8-5.14,15.37c0,14.14,11.46,25.59,25.6,25.59c14.14,0,25.6-11.46,25.6-25.59
			C123.95,14.91,112.49,3.45,98.35,3.45z"/>
		<linearGradient id="SVGID_8_" gradientUnits="userSpaceOnUse" x1="82.3841" y1="6.2383" x2="114.364" y2="51.9103">
			<stop  offset="0" style="stop-color:#FFFFFF"/>
			<stop  offset="0.0406" style="stop-color:#DBE2E9"/>
			<stop  offset="0.0994" style="stop-color:#ADBECD"/>
			<stop  offset="0.1639" style="stop-color:#849DB3"/>
			<stop  offset="0.2327" style="stop-color:#60809D"/>
			<stop  offset="0.3069" style="stop-color:#42688A"/>
			<stop  offset="0.3881" style="stop-color:#2A547B"/>
			<stop  offset="0.4795" style="stop-color:#17456F"/>
			<stop  offset="0.5866" style="stop-color:#0A3B67"/>
			<stop  offset="0.7242" style="stop-color:#023562"/>
			<stop  offset="1" style="stop-color:#003361"/>
		</linearGradient>
		<path class="st10" d="M98.36,1.14c-6.52,0-12.1,2.02-16.85,5.77l-0.13,0.12l2.38,2.07c4.2-3.23,8.86-4.94,14.56-4.94
			c13.74,0,24.88,11.14,24.88,24.88c0,13.74-11.14,24.88-24.88,24.88c-13.74,0-24.88-11.14-24.88-24.88c0-5.42,2.02-10.82,4.96-14.9
			c-0.71-0.72-1.61-1.37-2.38-1.83c-3.29,4.58-5.56,10.67-5.56,16.73c0,15.41,12.49,27.91,27.91,27.91
			c15.41,0,27.91-12.49,27.91-27.91C126.26,13.64,113.77,1.14,98.36,1.14z"/>
		<g>
			<path class="st6" d="M76.07,12.22c-1.34,1.81-5.63,7.87-5.63,16.82c0,15.41,12.49,27.91,27.91,27.91
				c15.41,0,27.91-12.5,27.91-27.91S113.77,1.14,98.35,1.14c-6.48,0-12.43,2.21-17.17,5.91"/>
		</g>
		<path class="st3" d="M83.8,9.06c4.2-3.23,8.85-4.94,14.56-4.94c13.74,0,24.88,11.14,24.88,24.88c0,13.74-11.14,24.88-24.88,24.88
			c-13.74,0-24.88-11.14-24.88-24.88c0-5.42,1.91-10.42,4.75-14.61"/>
		<path class="st6" d="M86.56,45.8c3.26-4.75,5.53-10.2,5.53-16.76c0-15.41-12.49-27.91-27.91-27.91c-6.48,0-12.44,2.21-17.17,5.92"
			/>
	</g>
</g>
</svg>
